<svg width="28" height="30" viewBox="0 0 28 30" fill="none" xmlns="http://www.w3.org/2000/svg">
<g clip-path="url(#clip0_15_779)" filter="url(#filter0_d_15_779)">
<path d="M14 19C14.3978 19 14.7794 19.158 15.0607 19.4393C15.342 19.7206 15.5 20.1022 15.5 20.5C15.5 20.8978 15.342 21.2794 15.0607 21.5607C14.7794 21.842 14.3978 22 14 22C13.6022 22 13.2206 21.842 12.9393 21.5607C12.658 21.2794 12.5 20.8978 12.5 20.5C12.5 20.1022 12.658 19.7206 12.9393 19.4393C13.2206 19.158 13.6022 19 14 19ZM21.5 19C21.8978 19 22.2794 19.158 22.5607 19.4393C22.842 19.7206 23 20.1022 23 20.5C23 20.8978 22.842 21.2794 22.5607 21.5607C22.2794 21.842 21.8978 22 21.5 22C21.1022 22 20.7206 21.842 20.4393 21.5607C20.158 21.2794 20 20.8978 20 20.5C20 20.1022 20.158 19.7206 20.4393 19.4393C20.7206 19.158 21.1022 19 21.5 19ZM6.5 19C6.89782 19 7.27936 19.158 7.56066 19.4393C7.84196 19.7206 8 20.1022 8 20.5C8 20.8978 7.84196 21.2794 7.56066 21.5607C7.27936 21.842 6.89782 22 6.5 22C6.10218 22 5.72064 21.842 5.43934 21.5607C5.15804 21.2794 5 20.8978 5 20.5C5 20.1022 5.15804 19.7206 5.43934 19.4393C5.72064 19.158 6.10218 19 6.5 19ZM19 7C20.3261 7 21.5979 7.52678 22.5355 8.46447C23.4732 9.40215 24 10.6739 24 12C24 13.3261 23.4732 14.5979 22.5355 15.5355C21.5979 16.4732 20.3261 17 19 17C17.156 17 15.49 15.96 14 13.878C12.51 15.96 10.844 17 9 17C7.67392 17 6.40215 16.4732 5.46447 15.5355C4.52678 14.5979 4 13.3261 4 12C4 10.6739 4.52678 9.40215 5.46447 8.46447C6.40215 7.52678 7.67392 7 9 7C10.844 7 12.51 8.04 14 10.122C15.49 8.04 17.156 7 19 7ZM9 9C8.20435 9 7.44129 9.31607 6.87868 9.87868C6.31607 10.4413 6 11.2044 6 12C6 12.7956 6.31607 13.5587 6.87868 14.1213C7.44129 14.6839 8.20435 15 9 15C10.254 15 11.51 14.125 12.759 12.146L12.848 11.999L12.758 11.854C11.561 9.958 10.358 9.074 9.157 9.004L9 9ZM19 9C17.746 9 16.49 9.875 15.241 11.854L15.151 12L15.241 12.146C16.439 14.042 17.641 14.926 18.843 14.996L19 15C19.7956 15 20.5587 14.6839 21.1213 14.1213C21.6839 13.5587 22 12.7956 22 12C22 11.2044 21.6839 10.4413 21.1213 9.87868C20.5587 9.31607 19.7956 9 19 9ZM14 2C14.197 2 14.392 2.0388 14.574 2.11418C14.756 2.18956 14.9214 2.30005 15.0607 2.43934C15.1999 2.57863 15.3104 2.74399 15.3858 2.92597C15.4612 3.10796 15.5 3.30302 15.5 3.5C15.5 3.69698 15.4612 3.89204 15.3858 4.07403C15.3104 4.25601 15.1999 4.42137 15.0607 4.56066C14.9214 4.69995 14.756 4.81044 14.574 4.88582C14.392 4.9612 14.197 5 14 5C13.6022 5 13.2206 4.84196 12.9393 4.56066C12.658 4.27936 12.5 3.89782 12.5 3.5C12.5 3.10218 12.658 2.72064 12.9393 2.43934C13.2206 2.15804 13.6022 2 14 2ZM6.5 2C6.69698 2 6.89204 2.0388 7.07403 2.11418C7.25601 2.18956 7.42137 2.30005 7.56066 2.43934C7.69995 2.57863 7.81044 2.74399 7.88582 2.92597C7.9612 3.10796 8 3.30302 8 3.5C8 3.69698 7.9612 3.89204 7.88582 4.07403C7.81044 4.25601 7.69995 4.42137 7.56066 4.56066C7.42137 4.69995 7.25601 4.81044 7.07403 4.88582C6.89204 4.9612 6.69698 5 6.5 5C6.10218 5 5.72064 4.84196 5.43934 4.56066C5.15804 4.27936 5 3.89782 5 3.5C5 3.10218 5.15804 2.72064 5.43934 2.43934C5.72064 2.15804 6.10218 2 6.5 2ZM21.5 2C21.697 2 21.892 2.0388 22.074 2.11418C22.256 2.18956 22.4214 2.30005 22.5607 2.43934C22.6999 2.57863 22.8104 2.74399 22.8858 2.92597C22.9612 3.10796 23 3.30302 23 3.5C23 3.69698 22.9612 3.89204 22.8858 4.07403C22.8104 4.25601 22.6999 4.42137 22.5607 4.56066C22.4214 4.69995 22.256 4.81044 22.074 4.88582C21.892 4.9612 21.697 5 21.5 5C21.1022 5 20.7206 4.84196 20.4393 4.56066C20.158 4.27936 20 3.89782 20 3.5C20 3.10218 20.158 2.72064 20.4393 2.43934C20.7206 2.15804 21.1022 2 21.5 2Z" fill="#3C6EEF"/>
</g>
<defs>
<filter id="filter0_d_15_779" x="-2" y="0" width="32" height="32" filterUnits="userSpaceOnUse" color-interpolation-filters="sRGB">
<feFlood flood-opacity="0" result="BackgroundImageFix"/>
<feColorMatrix in="SourceAlpha" type="matrix" values="0 0 0 0 0 0 0 0 0 0 0 0 0 0 0 0 0 0 127 0" result="hardAlpha"/>
<feOffset dy="4"/>
<feGaussianBlur stdDeviation="2"/>
<feComposite in2="hardAlpha" operator="out"/>
<feColorMatrix type="matrix" values="0 0 0 0 0 0 0 0 0 0 0 0 0 0 0 0 0 0 0.25 0"/>
<feBlend mode="normal" in2="BackgroundImageFix" result="effect1_dropShadow_15_779"/>
<feBlend mode="normal" in="SourceGraphic" in2="effect1_dropShadow_15_779" result="shape"/>
</filter>
<clipPath id="clip0_15_779">
<rect width="24" height="24" fill="white" transform="translate(2)"/>
</clipPath>
</defs>
</svg>
